<?xml version="1.0" encoding="UTF-8"?>
<svg width="50px" height="50px" viewBox="0 0 50 50" version="1.1" xmlns="http://www.w3.org/2000/svg" xmlns:xlink="http://www.w3.org/1999/xlink">
    <!-- Generator: Sketch 52.5 (67469) - http://www.bohemiancoding.com/sketch -->
    <title>分组</title>
    <desc>Created with Sketch.</desc>
    <defs>
        <polygon id="path-1" points="1.00645198e-05 3.61165003 49.3348857 3.61165003 49.3348857 49.4426605 1.00645198e-05 49.4426605"></polygon>
    </defs>
    <g id="Page-1" stroke="none" stroke-width="1" fill="none" fill-rule="evenodd">
        <g id="历史通行人员信息1" transform="translate(-28.000000, -25.000000)">
            <g id="分组-2" transform="translate(28.000000, 25.000000)">
                <g id="分组">
                    <path d="M13.7061186,22.5990026 C14.5298047,18.3101029 16.6670894,16.2167042 18.0066616,14.8762365 C18.2084781,14.6744199 17.9977052,14.436778 17.7152815,14.4773801 C17.0734094,14.5699291 14.3575441,15.259867 12.3919228,20.2948311 C10.7851528,24.4111717 11.8196117,28.7505255 13.3821971,31.2812928 C14.6196668,33.2851279 15.7995172,34.3461574 16.8277067,35.1352122 C18.1732498,36.1678799 19.2265171,36.5670348 19.596116,36.7506401 L18.9623046,38.2185866 C18.7192888,38.0266221 12.9448284,36.0768237 10.6364773,28.9938398 C8.78012349,23.2970011 11.2198345,18.2784571 12.9072117,16.0659389 C15.2695996,12.9679358 18.9996227,10.5303146 19.609252,10.0595089 C19.7465827,9.95322683 19.6701552,9.73379614 19.4964019,9.73678159 C18.604349,9.75170885 14.4139691,11.4659551 12.0011272,14.3024327 C7.269485,19.8640304 7.11334588,28.2716591 10.8699396,33.7213024 C14.1363221,38.4595126 19.4220641,41.9109931 26.501764,41.1482102 C32.690008,40.4818574 37.2562562,36.2377395 39.1588844,32.3853128 L40.5796608,33.1185397 C40.2891764,33.7269747 36.4289875,41.7444049 26.4310088,42.7594584 C15.5941181,43.8592988 9.84772097,35.5045126 8.6254771,33.0713696 C3.55200071,22.9703927 8.66996033,12.5434046 16.2359902,8.962654 C21.5799485,6.43337943 25.9112417,6.38979184 27.9025379,6.24589307 C28.0019534,6.23842945 28.0088199,6.09542632 27.9105986,6.07870779 C26.7211947,5.87480145 23.5548247,5.42459535 21.3130492,5.61476861 C16.1583685,6.05183872 10.8532211,9.47913712 7.88747347,14.3525883 C4.18342372,20.4393269 5.01099089,26.2878265 4.97874801,26.2442389 L3.39018923,26.3606715 C3.47885715,26.2111004 2.58561004,21.5633494 5.45910717,15.4619821 C8.12033869,9.81231352 12.611652,7.08122242 13.791801,6.35187661 C14.9373188,5.64372749 19.6020869,3.52883361 20.2851582,3.21506265 C20.5726572,3.08310569 20.4448798,2.6508123 20.1320045,2.69648971 C19.1638226,2.83889575 17.7696167,2.92308548 15.8947531,2.64842394 C11.5225593,2.00804458 13.8201628,2.11074411 17.3238888,1.12972473 C24.8230446,-0.970241904 29.589318,0.263048137 33.4554778,1.56291375 C35.6211243,2.29106539 39.0517067,4.46775812 40.3868007,4.53045261 C44.2263899,4.71047533 45.724191,2.06267834 45.9069006,2.88009498 C46.1120011,3.79782279 45.4516193,5.40668264 45.1169501,5.83718476 C44.0296487,7.23676445 42.8611429,6.76476456 43.1211758,7.45619514 C43.3289632,8.00850368 44.1833994,8.2751045 45.0097724,8.99877796 C45.6068627,9.52182908 45.7644946,10.3022261 45.6907539,11.3283258 C45.5967122,12.6326696 45.1085909,13.603837 44.8467668,13.6608591 C44.5953917,13.7151943 44.4168617,10.740789 43.4224078,10.7804955 C43.0662435,10.7945271 42.8190481,12.2003762 42.9662308,14.1594295 C43.1934237,17.1792138 45.6131322,24.6338864 45.4987894,26.4123199 C45.4086287,27.8166763 44.5735979,28.8171011 43.9881509,29.2547683 C43.6325836,29.520772 42.4894542,29.6945253 42.1031368,29.4750946 C41.6580059,29.2225254 42.0001387,28.0256579 41.6093431,27.6948698 C41.3633419,27.4861868 40.5554787,27.2601881 40.3345553,27.4954417 C39.9055459,27.9525143 41.446636,29.682882 40.8767133,29.9438105 C40.6163819,30.06293 39.4033929,29.2828315 39.2003822,29.1377386 C38.4241648,28.5839373 38.5782141,26.2305059 38.058447,25.4310019 C37.0296604,23.847817 32.5944735,22.0660995 31.8555743,20.3282681 C31.1856389,18.751054 31.0704005,17.5950872 30.1789447,16.9469457 C27.5206986,15.0138658 22.2689908,14.5120114 18.8918479,17.1445826 C15.3090075,19.9374725 14.8113327,23.5695729 15.2027254,26.3000669 C15.7207013,29.9112691 19.1354608,34.1506103 24.3686588,34.2548026 C31.9236426,34.4046722 34.0343568,27.4109534 34.002711,26.9246233 L35.5587284,27.292431 C35.4763299,27.5187282 34.1967654,33.9422258 27.2349909,35.560042 C22.5021545,36.6598824 18.7174976,34.6127582 16.6249946,32.4492015 C12.9364692,28.6355856 13.4030952,24.1777094 13.7061186,22.5990026" id="Fill-1" fill="#FFFFFF"></path>
                    <path d="M13.5737437,41.0334495 L12.6452682,42.3324195 C12.6452682,42.3324195 17.3136188,45.9370537 24.097759,46.0466197 C31.0237081,46.1585742 35.6842965,42.9489152 35.6842965,42.9489152 L34.8489671,41.5851609 C34.8489671,41.5851609 30.451397,44.5592678 24.1879196,44.448209 C17.5351393,44.3299851 13.5737437,41.0334495 13.5737437,41.0334495" id="Fill-3" fill="#FFFFFF"></path>
                    <mask id="mask-2" fill="white">
                        <use xlink:href="#path-1"></use>
                    </mask>
                    <g id="Clip-6"></g>
                    <path d="M11.9047867,3.61165003 L12.720412,4.98764466 C12.720412,4.98764466 1.11058798,10.9385453 1.63334055,25.9983571 C1.93725952,34.7600604 8.83693663,47.5924269 24.6520678,47.8461902 C32.600534,47.9739676 41.4016452,43.6155068 45.6000858,34.4934596 C50.4884642,23.8724171 45.5791876,14.9494994 45.5791876,14.9494994 L47.0289229,14.2703092 C47.0289229,14.2703092 52.3095896,24.337849 46.8889052,35.3822285 C42.1336779,45.0703174 33.6009588,49.2478598 24.6726674,49.438033 C13.3369078,49.679556 0.696207305,40.6694632 0.0292574253,25.9983571 C-0.684564044,10.2957775 11.9047867,3.61165003 11.9047867,3.61165003" id="Fill-5" fill="#FFFFFF" mask="url(#mask-2)"></path>
                </g>
            </g>
        </g>
    </g>
</svg>